<?xml version="1.0" standalone="no"?>
<!DOCTYPE svg PUBLIC "-//W3C//DTD SVG 20010904//EN"
 "http://www.w3.org/TR/2001/REC-SVG-20010904/DTD/svg10.dtd">
<svg version="1.0" xmlns="http://www.w3.org/2000/svg"
 width="498.000000pt" height="498.000000pt" viewBox="0 0 498.000000 498.000000"
 preserveAspectRatio="xMidYMid meet">
<metadata>
Created by potrace 1.14, written by Peter Selinger 2001-2017
</metadata>
<g transform="translate(0.000000,498.000000) scale(0.100000,-0.100000)"
fill="#000000" stroke="none">
<path d="M0 2490 l0 -2490 2490 0 2490 0 0 2490 0 2490 -2490 0 -2490 0 0
-2490z m2545 2130 c-8 -14 46 -36 113 -47 31 -5 56 -23 31 -23 -8 0 -8 -4 2
-16 10 -13 10 -17 -2 -25 -8 -5 -9 -9 -3 -9 6 0 11 -33 12 -85 0 -47 4 -89 7
-94 3 -6 1 -12 -5 -16 -6 -4 -7 -11 -4 -17 4 -6 8 -151 9 -322 2 -171 3 -316
4 -323 1 -6 11 -13 23 -15 19 -3 22 -10 25 -62 2 -41 -1 -62 -9 -68 -7 -4 -8
-8 -3 -8 15 0 15 -263 1 -272 -8 -6 -8 -8 0 -8 8 0 13 -83 5 -97 0 -2 -1 -6 0
-10 0 -5 -10 -10 -23 -13 l-23 -6 0 -404 c0 -223 3 -410 8 -417 4 -6 3 -14 -3
-18 -6 -3 -8 -11 -4 -16 3 -6 6 -39 6 -75 0 -35 5 -67 10 -70 6 -4 5 -10 -3
-16 -11 -8 -11 -11 -1 -15 10 -4 10 -8 1 -19 -9 -11 -9 -14 1 -14 7 0 10 -7 7
-15 -4 -8 -1 -17 4 -21 8 -4 8 -9 0 -17 -7 -7 -5 -14 7 -23 16 -12 16 -13 -3
-14 -19 -1 -19 -1 3 -13 17 -10 20 -15 10 -25 -9 -9 -7 -12 12 -12 23 0 23 0
4 -15 -10 -8 -17 -15 -14 -15 3 -1 13 -3 23 -5 25 -5 34 -15 14 -15 -9 0 -17
-4 -17 -10 0 -6 33 -11 78 -11 42 -1 88 -3 102 -4 14 -2 53 -4 88 -6 34 -1 65
-5 67 -9 3 -4 46 -9 97 -10 51 -1 107 -4 123 -5 17 -2 43 -4 58 -4 17 -1 26
-5 22 -12 -14 -22 26 -47 86 -54 33 -4 58 -9 55 -12 -3 -3 -1 -14 5 -24 7 -14
6 -19 -3 -19 -10 0 -10 -2 -1 -8 13 -8 15 -202 2 -202 -5 0 -6 -6 -3 -14 12
-31 -205 -52 -548 -55 -61 -1 -108 -5 -108 -10 0 -6 9 -8 20 -6 11 2 18 1 16
-4 -4 -6 -38 -11 -113 -15 -12 0 -25 -5 -30 -10 -5 -5 -2 -6 6 -1 9 5 12 3 9
-6 -3 -8 -14 -15 -26 -17 -13 -2 -19 -8 -15 -18 3 -9 -1 -14 -12 -14 -14 0
-15 -3 -5 -15 10 -12 9 -16 -5 -21 -16 -7 -16 -8 0 -16 15 -9 15 -11 -2 -24
-14 -11 -15 -13 -3 -14 11 0 10 -3 -4 -11 -15 -9 -16 -13 -5 -20 12 -8 12 -11
-1 -19 -13 -9 -13 -11 0 -21 12 -8 12 -12 2 -16 -10 -4 -10 -8 -1 -19 9 -11 9
-14 -1 -14 -7 0 -10 -6 -7 -14 3 -8 3 -17 0 -20 -4 -3 -7 -82 -8 -174 -1 -92
-4 -173 -8 -179 -4 -6 -3 -14 2 -17 4 -3 7 -20 5 -37 -2 -18 -6 -88 -8 -156
-3 -117 -4 -125 -27 -141 -30 -21 -36 -22 -136 -23 -101 0 -119 8 -128 62 -4
23 -15 49 -25 59 -13 13 -15 21 -7 29 8 8 8 11 -2 11 -8 0 -10 7 -6 20 4 12 2
20 -6 20 -9 0 -9 3 0 14 9 11 9 15 -1 18 -10 4 -10 8 1 21 10 12 10 17 1 17
-6 0 -10 6 -7 13 2 6 0 24 -4 39 -4 17 -3 30 3 34 6 4 6 9 -3 14 -10 7 -10 12
2 26 8 10 9 15 2 11 -6 -4 -14 -3 -18 3 -3 6 1 13 11 17 15 5 14 8 -7 15 -17
7 -20 11 -10 17 10 6 10 10 2 16 -9 5 -9 10 -1 20 8 10 8 15 0 20 -8 5 -5 11
7 21 17 12 16 13 -12 14 -29 1 -30 1 -6 11 23 9 24 10 5 24 -15 11 -16 15 -4
15 12 0 11 4 -4 15 -17 13 -17 14 10 21 l29 8 -34 9 c-25 6 -31 11 -21 17 8 5
18 6 22 4 4 -3 8 0 8 5 0 6 -10 11 -21 11 -17 0 -19 3 -10 13 8 10 7 17 -1 25
-9 9 -9 12 0 12 19 0 14 20 -5 20 -16 1 -16 2 1 15 12 9 15 15 7 15 -8 0 -11
8 -8 20 3 11 0 20 -5 20 -7 0 -6 5 1 13 6 8 8 17 4 21 -4 4 -8 19 -8 34 0 15
-4 32 -8 39 -4 6 -2 15 4 19 8 4 7 9 -2 15 -12 8 -12 10 -1 18 10 6 7 10 -14
15 -22 6 -25 9 -13 17 7 5 10 9 4 10 -5 1 -14 2 -20 4 -5 1 -29 3 -52 3 -24 1
-43 7 -43 13 0 5 4 8 8 5 4 -2 14 -1 21 4 8 5 -8 8 -40 7 -94 0 -493 15 -514
20 -11 3 -35 7 -52 10 -22 3 -33 11 -34 22 -2 46 -10 86 -20 92 -7 4 -9 11 -5
17 3 6 2 13 -3 16 -5 4 -5 22 0 43 4 21 11 54 14 74 4 27 12 38 28 43 17 5 19
8 9 15 -10 6 -8 10 10 14 12 4 33 7 46 7 13 0 22 6 22 15 0 11 11 15 38 16
123 2 248 12 257 20 12 12 28 12 20 -1 -3 -5 1 -10 10 -10 9 0 13 5 10 10 -3
6 1 10 10 10 10 0 13 -5 9 -12 -5 -9 -2 -9 9 1 14 11 17 11 17 0 0 -11 2 -11
8 -2 5 8 48 15 118 19 131 8 131 8 141 18 4 4 4 7 -2 6 -5 -1 -19 -1 -30 0
-14 1 -10 5 15 14 34 12 34 13 10 21 -25 8 -25 8 -2 12 26 5 30 23 5 23 -17 1
-17 1 -1 11 12 7 16 19 14 40 -2 20 1 32 11 36 12 5 12 7 1 14 -11 7 -10 11 2
19 8 5 10 10 4 10 -16 0 -10 60 7 71 11 7 10 9 -5 9 -20 0 -20 0 0 15 19 14
19 14 -1 15 -18 1 -17 2 5 15 19 11 21 14 8 15 -10 0 -18 3 -18 6 0 4 8 13 18
20 16 13 16 13 -3 14 -16 1 -14 4 9 14 28 13 28 13 5 19 -23 6 -23 7 -4 21 20
15 20 15 0 16 -18 1 -18 2 4 14 l23 13 -23 7 -24 7 25 11 c23 9 24 11 5 17
-19 8 -19 8 0 19 18 10 18 11 3 12 -10 0 -18 3 -18 6 0 4 8 13 18 21 9 8 12
12 5 9 -17 -9 -28 15 -12 25 12 7 12 9 -1 9 -11 0 -11 3 -2 12 8 8 9 15 1 25
-9 10 -7 14 7 20 17 6 17 7 0 13 -17 6 -17 7 -2 23 10 9 13 17 7 17 -6 0 -8 6
-5 14 3 8 0 17 -6 21 -9 6 -9 10 1 16 12 8 12 11 -1 18 -12 9 -12 11 4 17 17
6 17 8 2 16 -14 8 -15 13 -5 24 9 11 8 14 -2 14 -11 0 -11 3 1 11 12 8 12 12
2 16 -10 4 -10 8 0 21 10 12 10 16 0 19 -6 3 -9 10 -5 16 12 19 11 51 -1 60
-7 4 -2 10 13 14 l25 6 -24 9 c-20 7 -22 11 -10 19 13 7 13 10 1 18 -11 7 -10
11 5 20 11 6 14 11 8 11 -14 0 -15 90 -1 90 5 0 5 6 -2 13 -6 8 -8 17 -4 21 4
4 1 11 -6 15 -10 7 -9 10 8 16 25 8 28 25 4 25 -14 0 -15 2 -4 9 7 5 10 14 7
20 -4 6 0 14 8 17 9 3 13 11 9 18 -11 16 -11 266 -1 266 5 0 6 6 1 13 -4 6 -8
59 -9 117 -1 116 -10 170 -27 170 -6 0 -2 7 9 15 18 14 18 14 0 15 -15 0 -16
3 -7 14 9 10 9 16 1 21 -8 5 -8 11 1 21 9 11 9 14 -1 14 -10 0 -10 3 -1 14 8
10 9 16 1 21 -14 9 -2 27 13 19 7 -3 4 1 -6 9 -12 10 -14 17 -7 22 5 3 8 11 4
16 -3 5 0 16 6 24 8 10 9 15 2 15 -7 0 -9 14 -7 35 3 24 1 35 -8 35 -6 1 -1 7
12 14 21 11 21 14 6 20 -14 5 -15 9 -5 21 10 12 10 15 -1 15 -9 1 -8 5 5 15
11 8 15 15 8 15 -7 0 -9 14 -5 43 3 23 6 58 7 77 1 19 5 41 10 49 6 9 5 12 -2
8 -10 -7 -8 57 3 93 2 8 7 33 10 55 9 54 38 109 61 114 10 2 23 9 27 17 5 8
24 14 48 14 24 0 38 -4 34 -10z"/>
</g>
</svg>
